<svg id="Layer_1" data-name="Layer 1" xmlns="http://www.w3.org/2000/svg" viewBox="0 0 932.22 929.44"><defs><style>.cls-1{fill:#97845c;fill-rule:evenodd;}</style></defs><path class="cls-1" d="M930.28,20.76A20.82,20.82,0,0,0,909.53,0H20.76A20.82,20.82,0,0,0,0,20.76v93.72H815.8V197.4H0c1,48.95-1.59,108.27,7.43,155.94H123.82c-2.42-12.92-5.31-27.24-6.49-41.46H928c7.87-89.14,2.26-199.14,2.26-291.12Z"/><path class="cls-1" d="M689,594.9H831.21A841.24,841.24,0,0,1,744,709.39H354.46C391.78,742.46,430,771.91,465.14,795H654.57C596.1,845.93,532,890.85,465.14,929.44,263.62,813.1,70.78,629.09,15.63,394.79h899a624.58,624.58,0,0,1-39.2,114.49H183.22c16,28.18,36.53,57.12,60,85.62Z"/></svg>